# xmcd
#
# Track frame offsets:
#	150
#	13428
#	24874
#	37475
#	48902
#	61412
#	75446
#	87129
#	101706
#	116589
#	130744
#	142609
#	154788
#	166633
#	182741
#	195233
#	208751
#	220420
#	231423
#	245809
#
# Disc length: 3457 seconds
#
# Revision: 1
# Processed by: cddbd v1.5.2PL0 Copyright (c) Steve Scherf et al.
# Submitted via: audiograbber 1.83.01
#
DISCID=0f0d7f14
DTITLE=Lacy J. Dalton - Lacy J. Dalton and Hard Times [remastered 2013]
DYEAR=1979
DGENRE=Country
TTITLE0=Lacy J. Dalton - Crazy Blue Eyes
TTITLE1=Lacy J. Dalton - High Like An Angel
TTITLE2=Lacy J. Dalton - Honky Tonk Man
TTITLE3=Lacy J. Dalton - Carolina Come-On
TTITLE4=Lacy J. Dalton - Beer Drinkin' Song
TTITLE5=Lacy J. Dalton - Tennessee Waltz
TTITLE6=Lacy J. Dalton - Late Night Kind Of Lonesome
TTITLE7=Lacy J. Dalton - Losing Kind Of Love
TTITLE8=Lacy J. Dalton - Are There Any Cowboys Left (In The Good Ol' U.S.A.)?
TTITLE9=Lacy J. Dalton - Turn My Head Around
TTITLE10=Hard Times - Hard Times
TTITLE11=Hard Times - Hillbilly Girl With The Blues
TTITLE12=Hard Times - China Doll
TTITLE13=Hard Times - Old Soldier
TTITLE14=Hard Times - Ain't Nobody Who Could Do It Like My Daddy Could
TTITLE15=Hard Times - You Can't Fool Love
TTITLE16=Hard Times - Wide Eyed And Willing
TTITLE17=Hard Times - The Girls From Santa Cruz
TTITLE18=Hard Times - Whisper
TTITLE19=Hard Times - Me 'N' You
EXTD=
EXTT0=
EXTT1=
EXTT2=
EXTT3=
EXTT4=
EXTT5=
EXTT6=
EXTT7=
EXTT8=
EXTT9=
EXTT10=
EXTT11=
EXTT12=
EXTT13=
EXTT14=
EXTT15=
EXTT16=
EXTT17=
EXTT18=
EXTT19=
PLAYORDER=
